<svg width="48" height="48" viewBox="0 0 48 48" fill="none" xmlns="http://www.w3.org/2000/svg">
<g id="draw">
<mask id="mask0_624_204" style="mask-type:alpha" maskUnits="userSpaceOnUse" x="0" y="0" width="48" height="48">
<rect id="Bounding box" width="48" height="48" fill="#D9D9D9"/>
</mask>
<g mask="url(#mask0_624_204)">
<path id="draw_2" d="M28.0002 41.4999C27.6515 41.4999 27.3549 41.3777 27.1105 41.1333C26.8661 40.8888 26.7438 40.5923 26.7438 40.2436C26.7438 39.8812 26.8661 39.5812 27.1105 39.3436C27.3549 39.106 27.6515 38.9872 28.0002 38.9872C29.9318 38.9872 31.5793 38.5963 32.9425 37.8147C34.3058 37.0331 34.9874 36.0949 34.9874 35C34.9874 34.2008 34.5404 33.4474 33.6463 32.7397C32.7523 32.032 31.5237 31.4785 29.9604 31.0794L31.9206 29.1256C33.7916 29.7205 35.1892 30.5324 36.1136 31.5615C37.038 32.5906 37.5001 33.7367 37.5001 35C37.5001 37.0683 36.5172 38.6687 34.5514 39.8012C32.5856 40.9337 30.4019 41.4999 28.0002 41.4999ZM11.6528 26.9013C9.86991 26.3884 8.56541 25.6908 7.73934 24.8083C6.91328 23.9258 6.50024 22.9897 6.50024 22C6.50024 20.8538 6.95066 19.8402 7.85149 18.959C8.75236 18.0778 10.6041 17.0799 13.4066 15.9654C15.6032 15.0756 17.0419 14.3681 17.7226 13.8429C18.4034 13.3177 18.7438 12.7102 18.7438 12.0205C18.7438 11.1974 18.3419 10.4903 17.538 9.8993C16.7342 9.30827 15.5549 9.01275 14.0002 9.01275C13.0882 9.01275 12.2861 9.14095 11.5937 9.39735C10.9014 9.65375 10.2959 10.0414 9.77709 10.5602C9.54976 10.7875 9.26601 10.9215 8.92584 10.9621C8.58568 11.0027 8.27928 10.9157 8.00664 10.7012C7.71178 10.4807 7.55301 10.2027 7.53034 9.86725C7.50771 9.53179 7.60579 9.2303 7.82459 8.9628C8.36646 8.2611 9.19851 7.6752 10.3207 7.2051C11.4429 6.73504 12.6694 6.5 14.0002 6.5C16.1703 6.5 17.9222 7.0064 19.2559 8.0192C20.5897 9.03204 21.2565 10.3658 21.2565 12.0205C21.2565 13.2581 20.7895 14.339 19.8553 15.2634C18.9211 16.1877 17.107 17.1884 14.413 18.2653C12.2668 19.1243 10.8303 19.8179 10.1034 20.3461C9.37646 20.8743 9.01299 21.4256 9.01299 22C9.01299 22.541 9.39718 23.0583 10.1655 23.5519C10.9339 24.0455 12.0912 24.5068 13.6374 24.9359L11.6528 26.9013ZM36.6322 18.9294L30.8208 13.118L32.822 11.1167C33.3819 10.5569 34.0133 10.2737 34.7162 10.2673C35.4192 10.2609 36.0472 10.5376 36.6002 11.0975L38.6527 13.15C39.2125 13.7029 39.4892 14.3309 39.4828 15.0339C39.4764 15.7369 39.1933 16.3683 38.6334 16.9281L36.6322 18.9294ZM11.3399 38.4102H13.5514L30.2618 21.6999L28.0502 19.4884L11.3399 36.1987V38.4102ZM8.82719 40.923V35.1244L28.0502 15.8885L33.8616 21.6999L14.6258 40.923H8.82719Z" fill="#F8F8F8"/>
</g>
</g>
</svg>
