<svg width="48" height="48" viewBox="0 0 48 48" fill="none" xmlns="http://www.w3.org/2000/svg">
<g id="extension">
<mask id="mask0_624_212" style="mask-type:alpha" maskUnits="userSpaceOnUse" x="0" y="0" width="48" height="48">
<rect id="Bounding box" width="48" height="48" fill="#D9D9D9"/>
</mask>
<g mask="url(#mask0_624_212)">
<path id="extension_2" d="M17.8489 40.9997H9.51299C8.83866 40.9997 8.25129 40.7495 7.75089 40.249C7.25046 39.7486 7.00024 39.1613 7.00024 38.4869V30.151C8.30621 29.9074 9.41304 29.3065 10.3207 28.3484C11.2284 27.3903 11.6822 26.2493 11.6822 24.9254C11.6822 23.6014 11.2284 22.4626 10.3207 21.5087C9.41304 20.5549 8.30621 19.9519 7.00024 19.6997V11.3638C7.00024 10.6895 7.25046 10.1021 7.75089 9.60168C8.25129 9.10128 8.83866 8.85108 9.51299 8.85108H17.9258C18.2814 7.61518 18.9231 6.60023 19.8508 5.80623C20.7786 5.01223 21.869 4.61523 23.122 4.61523C24.375 4.61523 25.4653 5.01223 26.3931 5.80623C27.3209 6.60023 27.9626 7.61518 28.3181 8.85108H36.6361C37.3104 8.85108 37.8978 9.10128 38.3982 9.60168C38.8986 10.1021 39.1488 10.6895 39.1488 11.3638V19.6818C40.3848 20.0373 41.3873 20.6948 42.1565 21.6542C42.9257 22.6136 43.3103 23.7198 43.3103 24.9728C43.3103 26.2258 42.9257 27.3038 42.1565 28.2068C41.3873 29.1098 40.3848 29.739 39.1488 30.0946V38.4869C39.1488 39.1613 38.8986 39.7486 38.3982 40.249C37.8978 40.7495 37.3104 40.9997 36.6361 40.9997H28.3002C28.0352 39.5997 27.4124 38.4693 26.4317 37.6087C25.4511 36.748 24.331 36.3177 23.0715 36.3177C21.812 36.3177 20.6908 36.748 19.7079 37.6087C18.725 38.4693 18.1053 39.5997 17.8489 40.9997ZM9.51299 38.4869H16.0387C16.737 36.8083 17.7594 35.6084 19.1058 34.887C20.4523 34.1656 21.7747 33.8049 23.0731 33.8049C24.3715 33.8049 25.6944 34.1656 27.0418 34.887C28.3892 35.6084 29.4121 36.8083 30.1103 38.4869H36.6361V27.7178H38.2385C39.0497 27.6409 39.679 27.337 40.1264 26.8062C40.5739 26.2754 40.7976 25.6664 40.7976 24.9792C40.7976 24.292 40.5739 23.6809 40.1264 23.1458C39.679 22.6108 39.0497 22.3048 38.2385 22.2278H36.6361V11.3638H25.8669V9.68703C25.79 8.8759 25.4862 8.2466 24.9554 7.79913C24.4246 7.3517 23.8135 7.12798 23.122 7.12798C22.4305 7.12798 21.8194 7.3517 21.2886 7.79913C20.7578 8.2466 20.454 8.8759 20.377 9.68703V11.3638H9.51299V17.869C10.9437 18.4573 12.0817 19.3942 12.927 20.6798C13.7723 21.9655 14.195 23.3851 14.195 24.9388C14.195 26.466 13.7715 27.874 12.9245 29.1627C12.0775 30.4515 10.9403 31.3911 9.51299 31.9817V38.4869Z" fill="#222222"/>
</g>
</g>
</svg>
