<svg width="48" height="48" viewBox="0 0 48 48" fill="none" xmlns="http://www.w3.org/2000/svg">
<g id="map">
<mask id="mask0_624_196" style="mask-type:alpha" maskUnits="userSpaceOnUse" x="0" y="0" width="48" height="48">
<rect id="Bounding box" width="48" height="48" fill="#D9D9D9"/>
</mask>
<g mask="url(#mask0_624_196)">
<path id="map_2" d="M30.2979 40.9231L17.7363 36.5L9.29794 39.8103C8.75777 40.0607 8.23982 40.0257 7.74409 39.7052C7.24835 39.3847 7.00049 38.9197 7.00049 38.3103V12.1336C7.00049 11.7387 7.10627 11.3842 7.31784 11.0701C7.52937 10.7559 7.81932 10.5284 8.18769 10.3874L17.7363 7.07715L30.2979 11.4669L38.7029 8.1695C39.2431 7.93273 39.7611 7.96157 40.2568 8.256C40.7525 8.55043 41.0004 8.99595 41.0004 9.59255V36.0924C41.0004 36.4642 40.885 36.7881 40.6542 37.0642C40.4234 37.3403 40.1286 37.542 39.7696 37.6693L30.2979 40.9231ZM28.9338 37.8155V13.5155L19.0671 10.1258V34.4258L28.9338 37.8155ZM31.4465 37.8155L38.4876 35.4924V10.8591L31.4465 13.5155V37.8155ZM9.51324 37.1078L16.5543 34.4258V10.1258L9.51324 12.4874V37.1078Z" fill="#222222"/>
</g>
</g>
</svg>
